<svg xmlns="http://www.w3.org/2000/svg" viewBox="0 0 32 32">
  <!-- Viewfinder framing corners -->
  <path d="M 10 6 L 6 6 L 6 10" fill="none" stroke="#2D2A26" stroke-width="3" stroke-linecap="square"/>
  <path d="M 22 6 L 26 6 L 26 10" fill="none" stroke="#2D2A26" stroke-width="3" stroke-linecap="square"/>
  <path d="M 10 26 L 6 26 L 6 22" fill="none" stroke="#2D2A26" stroke-width="3" stroke-linecap="square"/>
  <path d="M 22 26 L 26 26 L 26 22" fill="none" stroke="#2D2A26" stroke-width="3" stroke-linecap="square"/>
  
  <!-- Outer crosshairs for that classic camera UI look -->
  <line x1="16" y1="2" x2="16" y2="6" stroke="#2D2A26" stroke-width="2" stroke-linecap="round"/>
  <line x1="16" y1="26" x2="16" y2="30" stroke="#2D2A26" stroke-width="2" stroke-linecap="round"/>
  <line x1="2" y1="16" x2="6" y2="16" stroke="#2D2A26" stroke-width="2" stroke-linecap="round"/>
  <line x1="26" y1="16" x2="30" y2="16" stroke="#2D2A26" stroke-width="2" stroke-linecap="round"/>

  <!-- Plump, bold Terracotta Heart dead center -->
  <path d="M 16 22 C 16 22 9 16 9 12 C 9 9.5 11 8 13.5 8 C 14.8 8 15.6 8.7 16 9.5 C 16.4 8.7 17.2 8 18.5 8 C 21 8 23 9.5 23 12 C 23 16 16 22 16 22 Z" fill="#C75B39"/>
</svg>