<svg xmlns="http://www.w3.org/2000/svg" viewBox="0 0 32 32">
  <path d="M10 12 h8 a5 5 0 0 1 5 5 v4 a5 5 0 0 1 -5 5 h-2 l-4 4 v-4 h-2 a5 5 0 0 1 -5 -5 v-4 a5 5 0 0 1 5 -5 z" fill="#C75B39"/>
  <path d="M23 15 h2 a3 3 0 0 1 3 3 v0 a3 3 0 0 1 -3 3 h-2" fill="none" stroke="#C75B39" stroke-width="3" stroke-linecap="round"/>
  <circle cx="10" cy="18" r="1.5" fill="#FDFBF7"/>
  <circle cx="14" cy="18" r="1.5" fill="#FDFBF7"/>
  <circle cx="18" cy="18" r="1.5" fill="#FDFBF7"/>
  <path d="M11 10 c0-1.5 -1.5-2 -1.5-3.5 s1.5-2 1.5-3.5" stroke="#2D2A26" stroke-width="2" stroke-linecap="round" fill="none"/>
  <path d="M17 10 c0-1.5 -1.5-2 -1.5-3.5 s1.5-2 1.5-3.5" stroke="#2D2A26" stroke-width="2" stroke-linecap="round" fill="none"/>
</svg>